<svg width="389" height="111" viewBox="0 0 389 111" fill="none" xmlns="http://www.w3.org/2000/svg">
<path fill-rule="evenodd" clip-rule="evenodd" d="M129.06 33.5411L117.605 83.6477C116.65 87.6537 114.502 91.1012 111.146 93.9744C107.789 96.8475 104.24 98.2921 100.525 98.2921L115.352 33.5411H97.0196L95.1251 43.3585L80.4323 108.11H98.2574C106.954 108.11 115.218 104.564 123.064 97.4881C130.91 90.4126 135.892 82.0878 138.04 72.516L144.663 43.3585L146.9 33.5411H129.06Z" fill="#E50539"/>
<path fill-rule="evenodd" clip-rule="evenodd" d="M178.479 2.93883C176.987 0.984958 175.004 0.000549316 172.527 0.000549316C170.037 0.000549316 167.769 0.984958 165.696 2.93883C163.637 4.8927 162.399 7.24054 161.996 9.96528C161.563 12.8064 162.101 15.1863 163.593 17.1401C165.069 19.094 167.053 20.0795 169.529 20.0795C172.021 20.0795 174.302 19.0769 176.376 17.075C178.435 15.071 179.688 12.7071 180.09 9.96528C180.493 7.24054 179.956 4.8927 178.479 2.93883ZM161.757 90.9697C161.788 90.7732 161.847 90.5266 161.937 90.2309C162.026 89.9351 162.086 89.7547 162.101 89.6393L174.854 33.5409H145.305L143.052 43.3583H154.88L144.261 89.6393C144.112 90.0504 143.992 90.6248 143.873 91.4128C143.111 96.4864 144.29 100.508 147.392 103.497C150.496 106.468 155.104 107.962 161.236 107.962H163.89L166.157 98.1445C162.608 97.5701 161.131 95.1732 161.757 90.9697Z" fill="#E50539"/>
<path fill-rule="evenodd" clip-rule="evenodd" d="M210.908 87.1611C210.192 90.1816 208.611 92.7761 206.165 94.9264C203.718 97.0778 201.108 98.1444 198.363 98.1444C193.216 98.1444 191.054 95.4186 191.859 89.935C191.875 89.8538 191.934 89.6072 192.039 89.2132C192.143 88.8193 192.203 88.5235 192.232 88.327L200.779 50.6804C201.943 45.8053 204.389 43.3582 208.119 43.3582H220.902L210.908 87.1611ZM227.51 92.727C227.54 92.5295 227.6 92.333 227.674 92.1355C227.749 91.939 227.794 91.7575 227.823 91.5611L240.995 33.5408H210.252C203.852 33.5408 197.901 35.5277 192.396 39.4846C186.877 43.4404 183.461 48.3987 182.133 54.3425L174.705 87.1611C174.541 87.6533 174.408 88.2769 174.302 89.0659C173.482 94.5324 174.929 99.0477 178.658 102.61C182.386 106.172 187.265 107.962 193.307 107.962H196.097C201.331 107.962 206.194 105.96 210.699 101.953C212.952 105.96 217.173 107.962 223.379 107.962H229.643L231.896 98.1444C228.465 97.9469 227.003 96.1414 227.51 92.727Z" fill="#E50539"/>
<path fill-rule="evenodd" clip-rule="evenodd" d="M314.026 52.7333L313.788 54.3423L306.374 87.1609C305.584 90.6747 304.286 93.3834 302.496 95.2882C300.706 97.1918 298.842 98.1442 296.888 98.1442C295.113 98.1442 293.755 97.2741 292.816 95.5006C291.876 93.7443 291.622 91.5117 292.024 88.7699C292.054 88.5724 292.114 88.3097 292.219 87.9659C292.308 87.62 292.368 87.3584 292.397 87.1609L299.811 54.3423C300.557 51.1243 301.795 48.5138 303.511 46.5108C305.226 44.5089 307.149 43.5064 309.283 43.5064C311.058 43.5064 312.4 44.3114 313.31 45.9204C314.22 47.5454 314.474 49.8111 314.026 52.7333ZM327.6 38.8929C323.916 35.3311 319.069 33.5406 313.027 33.5406H310.237C303.66 33.5406 297.663 35.5446 292.233 39.5506C286.803 43.5565 283.433 48.4978 282.12 54.3423L274.557 87.1609C274.408 87.6531 274.259 88.2777 274.154 89.0657C273.319 94.6305 274.765 99.1628 278.51 102.693C282.24 106.205 287.176 107.963 293.292 107.963H295.948C302.437 107.963 308.404 105.927 313.892 101.888C319.382 97.8325 322.768 92.9232 324.08 87.1609L331.628 54.3423L331.911 52.4547C332.718 46.971 331.285 42.4568 327.6 38.8929Z" fill="#E50539"/>
<path fill-rule="evenodd" clip-rule="evenodd" d="M382.509 33.5411C375.32 33.5411 369.098 35.6423 363.863 39.8458L365.206 33.5411H347.455L330.42 107.962H348.26L357.524 67.2469C358.702 62.2555 361.014 57.5929 364.46 53.2592C367.905 48.9083 371.784 45.9039 376.125 44.2457L374.006 53.9158H383.732L388.49 33.5411H382.509Z" fill="#E50539"/>
<path fill-rule="evenodd" clip-rule="evenodd" d="M45.6149 55.2913L45.644 55.0703L53.8246 19.9359C54.428 16.9976 55.691 14.5643 57.6137 12.6681C59.5383 10.774 61.7191 9.82486 64.1016 9.82486C66.3415 9.82486 67.977 10.647 69.0684 12.3211C70.1306 13.9643 70.5031 16.0804 70.1306 18.6098L69.9298 19.9359L61.7482 55.0703L61.6909 55.2913H45.6149ZM82.8473 5.55945C78.7711 1.86312 73.2882 0 66.3696 0C58.8205 0 52.1891 2.08519 46.4191 6.22462C40.649 10.363 37.0025 15.8605 35.4524 22.7161L28.0458 55.0703C21.7879 55.0703 15.9888 55.1012 11.4818 55.1012C5.11035 55.1012 0 60.8208 0 67.8355H25.1181L15.9606 107.96H33.6441L42.8307 67.8355H58.935L53.2222 92.7319C53.0505 93.206 52.935 93.838 52.8206 94.6281C52.1891 98.8305 52.935 102.115 55.0876 104.454C57.2121 106.791 60.456 107.96 64.7903 107.96H71.8534L74.1205 98.1344C71.5653 97.9454 70.5031 96.4282 70.9348 93.6159L87.0962 22.7161C87.1244 22.4962 87.1826 22.1161 87.3261 21.547C87.4697 20.947 87.5269 20.5669 87.5551 20.3469C88.4737 14.2173 86.8945 9.28782 82.8473 5.55945Z" fill="#E50539"/>
<path fill-rule="evenodd" clip-rule="evenodd" d="M274.08 33.5411L278.122 16.2702H260.281L256.374 33.5411H247.618L245.35 43.3585H254.121L243.471 89.788C243.441 89.9855 243.367 90.3303 243.247 90.8226C243.128 91.3148 243.068 91.6436 243.038 91.8561C242.292 96.8304 243.172 100.755 245.663 103.644C248.17 106.518 251.944 107.962 257 107.962H263.265L265.547 97.9963C261.878 97.6194 260.356 95.3207 260.984 91.1183C261.013 90.9208 261.072 90.6741 261.161 90.3795C261.237 90.0826 261.297 89.9022 261.312 89.788L271.946 43.3585H279.539L281.807 33.5411H274.08Z" fill="#E50539"/>
</svg>
